<svg width="256" height="256" viewBox="0 0 256 256" fill="none" xmlns="http://www.w3.org/2000/svg">
  <defs>
    <filter id="panelShadow" x="-24" y="-16" width="304" height="336" filterUnits="userSpaceOnUse" color-interpolation-filters="sRGB">
      <feOffset dy="30"/>
      <feGaussianBlur stdDeviation="24"/>
      <feColorMatrix
        type="matrix"
        values="0 0 0 0 0
                0 0 0 0 0
                0 0 0 0 0
                0 0 0 0.24 0"
      />
      <feBlend in2="SourceGraphic" result="shape"/>
    </filter>
    <radialGradient id="brandGlow" cx="0" cy="0" r="1" gradientUnits="userSpaceOnUse" gradientTransform="translate(79 79) rotate(90) scale(108)">
      <stop offset="0" stop-color="#F4B558" stop-opacity="0.2"/>
      <stop offset="0.42" stop-color="#F4B558" stop-opacity="0"/>
    </radialGradient>
    <linearGradient id="panelFill" x1="128" y1="5" x2="128" y2="251" gradientUnits="userSpaceOnUse">
      <stop stop-color="white" stop-opacity="0.08"/>
      <stop offset="1" stop-color="white" stop-opacity="0.025"/>
    </linearGradient>
  </defs>

  <g filter="url(#panelShadow)">
    <rect x="5" y="5" width="246" height="246" rx="88" fill="#0E0E12" fill-opacity="0.95"/>
    <rect x="5" y="5" width="246" height="246" rx="88" fill="url(#brandGlow)"/>
    <rect x="5" y="5" width="246" height="246" rx="88" fill="url(#panelFill)"/>
    <rect x="5.5" y="5.5" width="245" height="245" rx="87.5" stroke="white" stroke-opacity="0.1"/>
    <path
      d="M180.5 78H132.7C120.2 78 110 88.2 110 100.7V155.3C110 167.8 120.2 178 132.7 178H180.5"
      stroke="#F4B558"
      stroke-width="19.5"
      stroke-linecap="square"
      stroke-linejoin="round"
    />
    <rect x="141.2" y="84" width="54.8" height="14.1" rx="7.05" fill="#F7D8A5"/>
    <rect x="141.2" y="120.95" width="54.8" height="14.1" rx="7.05" fill="#F7D8A5"/>
    <rect x="141.2" y="157.9" width="54.8" height="14.1" rx="7.05" fill="#F7D8A5"/>
    <path d="M33 22H223" stroke="white" stroke-opacity="0.06" stroke-width="2"/>
  </g>
</svg>
